<?xml version="1.0" standalone="no"?>
<!DOCTYPE svg PUBLIC "-//W3C//DTD SVG 20010904//EN"
 "http://www.w3.org/TR/2001/REC-SVG-20010904/DTD/svg10.dtd">
<svg version="1.0" xmlns="http://www.w3.org/2000/svg"
 width="45.000000pt" height="42.000000pt" viewBox="0 0 45.000000 42.000000"
 preserveAspectRatio="xMidYMid meet">
<metadata>
Created by potrace 1.15, written by Peter Selinger 2001-2017
</metadata>
<g transform="translate(0.000000,42.000000) scale(0.100000,-0.100000)"
fill="#000000" stroke="none">
<path d="M50 370 c0 -27 -4 -50 -10 -50 -16 0 -12 -127 5 -159 8 -16 28 -34
44 -41 27 -11 30 -17 33 -64 3 -43 6 -51 23 -51 17 0 20 8 23 51 2 42 7 53 22
57 13 3 20 0 20 -9 0 -28 31 -74 60 -89 86 -44 180 22 167 118 -10 71 -79 119
-143 99 l-34 -10 0 49 c0 27 -4 49 -10 49 -5 0 -10 23 -10 50 0 43 -3 50 -20
50 -17 0 -20 -7 -20 -50 l0 -50 -55 0 -55 0 0 50 c0 43 -3 50 -20 50 -17 0
-20 -7 -20 -50z m170 -137 c0 -61 -20 -83 -76 -83 -53 0 -74 25 -74 87 l0 43
75 0 75 0 0 -47z m143 -35 c34 -18 46 -39 47 -81 0 -51 -35 -87 -85 -87 -50 0
-85 36 -85 87 1 71 64 113 123 81z"/>
</g>
</svg>
