<?xml version="1.0" standalone="no"?>
<!DOCTYPE svg PUBLIC "-//W3C//DTD SVG 20010904//EN"
 "http://www.w3.org/TR/2001/REC-SVG-20010904/DTD/svg10.dtd">
<svg version="1.0" xmlns="http://www.w3.org/2000/svg"
 width="64.000000pt" height="64.000000pt" viewBox="0 0 64.000000 64.000000"
 preserveAspectRatio="xMidYMid meet">

<g transform="translate(0.000000,64.000000) scale(0.100000,-0.100000)"
fill="#000000" stroke="none">
<path d="M276 564 c-20 -19 -20 -29 -1 -48 14 -14 11 -17 -32 -27 -68 -18
-136 -87 -153 -157 -19 -79 0 -143 60 -202 59 -60 123 -79 202 -60 65 16 143
88 153 143 5 26 13 37 29 39 15 2 21 10 21 28 0 18 -6 26 -21 28 -16 2 -24 12
-28 35 -12 63 -88 132 -169 151 -25 6 -26 8 -12 22 8 8 15 19 15 24 0 11 -29
40 -40 40 -5 0 -16 -7 -24 -16z m44 -24 c0 -13 -7 -20 -20 -20 -13 0 -20 7
-20 20 0 13 7 20 20 20 13 0 20 -7 20 -20z m68 -79 c99 -51 139 -166 93 -266
-71 -153 -291 -153 -362 0 -47 101 -6 215 96 268 42 23 127 21 173 -2z m152
-181 c0 -5 -4 -10 -10 -10 -5 0 -10 5 -10 10 0 6 5 10 10 10 6 0 10 -4 10 -10z"/>
<path d="M247 447 c-88 -28 -141 -125 -117 -213 33 -116 163 -166 266 -103 38
23 58 52 75 107 25 86 -35 188 -126 211 -51 13 -49 13 -98 -2z m47 -19 c5 -10
7 -10 12 0 3 6 12 12 20 12 25 0 74 -30 74 -45 0 -8 7 -15 15 -15 15 0 45 -49
45 -74 0 -8 -6 -17 -12 -20 -10 -5 -10 -7 0 -12 6 -3 12 -12 12 -20 0 -25 -30
-74 -45 -74 -8 0 -15 -7 -15 -15 0 -15 -49 -45 -74 -45 -8 0 -17 6 -20 13 -5
10 -7 9 -12 0 -3 -7 -12 -13 -20 -13 -25 0 -74 30 -74 45 0 8 -7 15 -15 15
-15 0 -45 49 -45 74 0 8 6 17 13 20 10 5 10 7 0 12 -7 3 -13 12 -13 20 0 25
30 74 45 74 8 0 15 7 15 15 0 16 45 44 72 45 9 0 19 -6 22 -12z"/>
<path d="M290 350 c0 -11 -9 -29 -20 -40 -11 -11 -20 -24 -20 -30 0 -13 37
-50 50 -50 6 0 19 9 30 20 11 11 29 20 40 20 11 0 20 5 20 10 0 6 -9 10 -20
10 -11 0 -29 9 -40 20 -11 11 -20 29 -20 40 0 11 -4 20 -10 20 -5 0 -10 -9
-10 -20z m35 -70 c0 -18 -6 -26 -23 -28 -13 -2 -25 3 -28 12 -10 26 4 48 28
44 17 -2 23 -10 23 -28z"/>
</g>
</svg>
