<?xml version="1.0" standalone="no"?>
<!DOCTYPE svg PUBLIC "-//W3C//DTD SVG 20010904//EN"
 "http://www.w3.org/TR/2001/REC-SVG-20010904/DTD/svg10.dtd">
<svg version="1.0" xmlns="http://www.w3.org/2000/svg"
 width="64.000000pt" height="64.000000pt" viewBox="0 0 64.000000 64.000000"
 preserveAspectRatio="xMidYMid meet">

<g transform="translate(0.000000,64.000000) scale(0.100000,-0.100000)"
fill="#000000" stroke="none">
<path d="M144 536 c-94 -42 -105 -142 -29 -255 l34 -51 -45 0 c-24 0 -44 -4
-44 -10 0 -6 40 -10 100 -10 93 0 100 -1 100 -20 0 -16 -7 -20 -34 -20 -32 0
-66 -20 -66 -40 0 -5 7 -16 16 -24 13 -13 46 -16 210 -16 123 0 194 4 194 10
0 6 -18 10 -39 10 l-40 0 34 55 c41 70 50 113 31 159 -39 94 -173 94 -212 0
-19 -46 -10 -89 31 -159 l34 -55 -120 0 c-112 0 -119 1 -119 20 0 16 7 20 34
20 32 0 66 20 66 40 0 12 -29 40 -41 40 -6 0 1 15 14 33 35 46 54 86 61 132
15 96 -85 179 -170 141z m122 -40 c28 -28 34 -41 34 -77 0 -24 -9 -62 -19 -84
-20 -45 -73 -105 -91 -105 -18 0 -71 60 -91 105 -10 22 -19 60 -19 84 0 36 6
49 34 77 28 28 42 34 76 34 34 0 48 -6 76 -34z m265 -145 c22 -22 29 -39 29
-68 -1 -49 -29 -110 -69 -147 l-31 -30 -31 30 c-40 37 -68 98 -69 147 0 55 43
97 100 97 33 0 48 -6 71 -29z"/>
<path d="M160 450 c-11 -11 -20 -24 -20 -30 0 -5 9 -19 20 -30 11 -11 25 -20
30 -20 6 0 19 9 30 20 11 11 20 25 20 30 0 6 -9 19 -20 30 -11 11 -24 20 -30
20 -5 0 -19 -9 -30 -20z m55 -30 c0 -18 -6 -26 -23 -28 -13 -2 -25 3 -28 12
-10 26 4 48 28 44 17 -2 23 -10 23 -28z"/>
<path d="M430 310 c-11 -11 -20 -24 -20 -30 0 -5 9 -19 20 -30 11 -11 25 -20
30 -20 6 0 19 9 30 20 11 11 20 25 20 30 0 6 -9 19 -20 30 -11 11 -24 20 -30
20 -5 0 -19 -9 -30 -20z m55 -30 c0 -18 -6 -26 -23 -28 -13 -2 -25 3 -28 12
-10 26 4 48 28 44 17 -2 23 -10 23 -28z"/>
</g>
</svg>
